<?xml version="1.0" encoding="utf-8"?>
<svg viewBox="41.141 66.843 400 350" width="32" height="32" xmlns="http://www.w3.org/2000/svg">
  <path d="M 417.688 66.885 C 379.633 69.315 303.994 78.159 257.297 110.315 C 254.077 112.532 252.249 116.48 252.249 120.605 L 252.249 404.877 C 252.249 413.901 261.019 419.603 268.415 415.416 C 316.458 388.212 385.939 380.789 420.293 378.76 C 432.021 378.063 441.141 367.484 441.141 354.807 L 441.141 90.87 C 441.148 77.033 430.481 66.072 417.688 66.885 Z M 224.985 110.315 C 178.295 78.159 102.656 69.324 64.601 66.885 C 51.808 66.072 41.141 77.033 41.141 90.87 L 41.141 354.815 C 41.141 367.502 50.261 378.079 61.989 378.768 C 96.357 380.797 165.872 388.227 213.913 415.446 C 221.29 419.625 230.033 413.931 230.033 404.931 L 230.033 120.463 C 230.033 116.329 228.215 112.541 224.985 110.315 Z M 175.189 206.014 L 157.853 205.711 C 155.65 198.789 152.544 193.534 148.536 189.948 C 144.526 186.372 139.864 184.537 134.548 184.444 C 128.724 184.343 123.513 186.303 118.914 190.327 C 114.314 194.362 110.687 200.131 108.03 207.635 C 105.371 215.14 103.99 223.857 103.882 233.788 C 103.774 243.726 104.967 252.53 107.459 260.193 C 109.953 267.847 113.454 273.772 117.964 277.964 C 122.475 282.148 127.641 284.289 133.464 284.391 C 141.312 284.528 147.718 281.193 152.684 274.387 C 157.649 267.589 160.745 258.304 161.969 246.531 L 128.942 245.955 L 129.138 227.878 L 177.608 228.724 L 177.417 246.397 C 176.375 257.118 173.842 266.945 169.817 275.881 C 165.799 284.816 160.618 291.914 154.273 297.172 C 147.929 302.43 140.919 304.992 133.243 304.858 C 124.971 304.714 117.452 301.569 110.685 295.425 C 103.918 289.28 98.588 280.805 94.696 269.997 C 90.803 259.2 88.93 247.045 89.076 233.529 C 89.223 220.024 91.359 207.938 95.484 197.271 C 99.609 186.614 105.143 178.332 112.085 172.428 C 119.02 166.522 126.582 163.64 134.772 163.783 C 144.135 163.947 152.424 167.703 159.641 175.05 C 166.864 182.389 172.048 192.709 175.189 206.014 Z M 348.599 167.693 C 358.44 166.134 366.36 167.914 372.359 173.03 C 378.363 178.138 382.113 185.402 383.606 194.829 C 383.865 196.465 384.066 198.948 384.21 202.278 C 384.417 210.881 382.758 219.071 379.235 226.85 C 375.706 234.63 370.156 240.407 362.589 244.183 L 388.205 295.805 L 369.077 298.834 L 345.302 248.855 L 332.93 250.815 L 334.339 304.336 L 318.308 306.875 L 314.844 173.039 L 348.599 167.693 Z M 367.746 204.886 C 367.729 202.951 367.581 201.103 367.302 199.345 C 366.446 193.937 364.497 189.961 361.457 187.42 C 358.407 184.868 354.258 184.01 349.005 184.842 L 331.282 187.649 L 332.493 233.483 L 350.205 230.677 C 356.211 229.726 360.702 226.95 363.673 222.351 C 366.644 217.752 368.002 211.929 367.746 204.886 Z" style="fill: #ffffff;"/>
</svg>